<svg xmlns="http://www.w3.org/2000/svg" width="323" height="323" viewBox="0 0 323 323">
  <g id="sun-icon" transform="translate(607.492 -138.078)">
    <circle id="Ellipse_163" data-name="Ellipse 163" cx="68.766" cy="68.766" r="68.766" transform="translate(-514.763 230.788)" fill="none" stroke="rgba(215,190,138,0.25)" stroke-linecap="round" stroke-linejoin="round" stroke-width="3"/>
    <g id="Group_333" data-name="Group 333" transform="translate(-488.543 266.486)">
      <path id="Path_1060" data-name="Path 1060" d="M-401.7,292.923a8.836,8.836,0,0,1-3.9-2.785c-1.241-1.857-5.849-3.9-9.749-3.9s-8.508,2.042-9.749,3.9a8.831,8.831,0,0,1-3.9,2.785" transform="translate(485.585 -268.969)" fill="none" stroke="rgba(215,190,138,0.25)" stroke-linecap="round" stroke-linejoin="round" stroke-width="3"/>
      <path id="Path_1061" data-name="Path 1061" d="M-410.979,290.455a4.216,4.216,0,0,1-4.217,4.217,4.216,4.216,0,0,1-4.216-4.217,4.216,4.216,0,0,1,4.216-4.216A4.216,4.216,0,0,1-410.979,290.455Z" transform="translate(485.433 -268.969)" fill="none" stroke="rgba(215,190,138,0.25)" stroke-linecap="round" stroke-linejoin="round" stroke-width="3"/>
      <path id="Path_1062" data-name="Path 1062" d="M-430.317,288.712a76.382,76.382,0,0,1,7.521-5.988c2.368-1.393,8.944-2.089,11.644-.836s7.714,6.824,7.714,6.824" transform="translate(485.606 -268.89)" fill="none" stroke="rgba(215,190,138,0.25)" stroke-linecap="round" stroke-linejoin="round" stroke-width="3"/>
      <path id="Path_1063" data-name="Path 1063" d="M-433,314.871s3.2,2.786,2.507,6.546-4.456,3.342-7.1,3.481-4.039,3.482-6.964,3.343c-2.924.139-4.316-3.2-6.963-3.343s-6.407.279-7.1-3.481,2.507-6.546,2.507-6.546" transform="translate(486.056 -269.424)" fill="none" stroke="rgba(215,190,138,0.25)" stroke-linecap="round" stroke-linejoin="round" stroke-width="3"/>
      <path id="Path_1064" data-name="Path 1064" d="M-447.612,321.937s-2.786-1.253-1.672-6.267,2.646-3.9,2.646-11.837V286.239" transform="translate(485.911 -268.969)" fill="none" stroke="rgba(215,190,138,0.25)" stroke-linecap="round" stroke-linejoin="round" stroke-width="3"/>
      <path id="Path_1065" data-name="Path 1065" d="M-428.843,339.553a45.015,45.015,0,0,1-5.71.3c-2.232-.1-3.218-.718-4.889-.649-3.343.139-3.188,1.253-5.138,1.323-1.95-.07-1.8-1.184-5.137-1.323-1.671-.07-2.657.544-4.89.649a45.016,45.016,0,0,1-5.71-.3" transform="translate(486.082 -269.81)" fill="none" stroke="rgba(215,190,138,0.25)" stroke-linecap="round" stroke-linejoin="round" stroke-width="3"/>
      <path id="Path_1066" data-name="Path 1066" d="M-435.968,337.064s-3.482-1.811-4.457-1.532a26.581,26.581,0,0,0-4.039,2.508,26.564,26.564,0,0,0-4.038-2.508c-.975-.279-4.457,1.532-4.457,1.532" transform="translate(485.965 -269.751)" fill="none" stroke="rgba(215,190,138,0.25)" stroke-linecap="round" stroke-linejoin="round" stroke-width="3"/>
      <path id="Path_1067" data-name="Path 1067" d="M-433.913,341.9s-6.267,4.179-10.584,4.179-10.584-4.179-10.584-4.179" transform="translate(485.999 -269.852)" fill="none" stroke="rgba(215,190,138,0.25)" stroke-linecap="round" stroke-linejoin="round" stroke-width="3"/>
      <path id="Path_1068" data-name="Path 1068" d="M-433.572,273.89s11.838-11.7,33.007,0" transform="translate(485.657 -268.691)" fill="none" stroke="rgba(215,190,138,0.25)" stroke-linecap="round" stroke-linejoin="round" stroke-width="3"/>
      <path id="Path_1069" data-name="Path 1069" d="M-485.271,292.923a8.831,8.831,0,0,0,3.9-2.785c1.241-1.857,5.85-3.9,9.749-3.9s8.508,2.042,9.749,3.9a8.837,8.837,0,0,0,3.9,2.785" transform="translate(486.478 -268.969)" fill="none" stroke="rgba(215,190,138,0.25)" stroke-linecap="round" stroke-linejoin="round" stroke-width="3"/>
      <path id="Path_1070" data-name="Path 1070" d="M-475.687,290.455a4.216,4.216,0,0,0,4.216,4.217,4.216,4.216,0,0,0,4.217-4.217,4.216,4.216,0,0,0-4.217-4.216A4.216,4.216,0,0,0-475.687,290.455Z" transform="translate(486.326 -268.969)" fill="none" stroke="rgba(215,190,138,0.25)" stroke-linecap="round" stroke-linejoin="round" stroke-width="3"/>
      <path id="Path_1071" data-name="Path 1071" d="M-456.647,288.712a76.467,76.467,0,0,0-7.52-5.988c-2.368-1.393-8.944-2.089-11.644-.836s-7.715,6.824-7.715,6.824" transform="translate(486.45 -268.89)" fill="none" stroke="rgba(215,190,138,0.25)" stroke-linecap="round" stroke-linejoin="round" stroke-width="3"/>
      <path id="Path_1072" data-name="Path 1072" d="M-453.491,273.89s-11.837-11.7-33.006,0" transform="translate(486.497 -268.691)" fill="none" stroke="rgba(215,190,138,0.25)" stroke-linecap="round" stroke-linejoin="round" stroke-width="3"/>
    </g>
    <g id="Group_346" data-name="Group 346" transform="translate(-605.992 139.578)">
      <g id="Group_336" data-name="Group 336">
        <g id="Group_334" data-name="Group 334" transform="translate(150.495)">
          <path id="Path_1073" data-name="Path 1073" d="M-433.919,231.606a707.528,707.528,0,0,0-7.224-76.83l-2.275-15.2-2.276,15.2a707.536,707.536,0,0,0-7.224,76.83,69.368,69.368,0,0,1,9.5-.668A69.353,69.353,0,0,1-433.919,231.606Z" transform="translate(452.918 -139.578)" fill="none" stroke="rgba(215,190,138,0.25)" stroke-linecap="round" stroke-linejoin="round" stroke-width="3"/>
          <path id="Path_1074" data-name="Path 1074" d="M-452.908,371.529a707.544,707.544,0,0,0,7.224,76.831l2.276,15.2,2.275-15.2a707.307,707.307,0,0,0,7.224-76.831,69.194,69.194,0,0,1-9.5.669A69.207,69.207,0,0,1-452.908,371.529Z" transform="translate(452.918 -143.558)" fill="none" stroke="rgba(215,190,138,0.25)" stroke-linecap="round" stroke-linejoin="round" stroke-width="3"/>
        </g>
        <g id="Group_335" data-name="Group 335" transform="translate(0 150.496)">
          <path id="Path_1075" data-name="Path 1075" d="M-374.041,311.651a707.56,707.56,0,0,0,76.831-7.224l15.2-2.275-15.2-2.276a707.291,707.291,0,0,0-76.831-7.223,69.2,69.2,0,0,1,.669,9.5A69.2,69.2,0,0,1-374.041,311.651Z" transform="translate(602.012 -292.653)" fill="none" stroke="rgba(215,190,138,0.25)" stroke-linecap="round" stroke-linejoin="round" stroke-width="3"/>
          <path id="Path_1076" data-name="Path 1076" d="M-513.964,292.662a707.337,707.337,0,0,0-76.831,7.225l-15.2,2.275,15.2,2.275a707.328,707.328,0,0,0,76.831,7.224,69.343,69.343,0,0,1-.668-9.5A69.359,69.359,0,0,1-513.964,292.662Z" transform="translate(605.992 -292.653)" fill="none" stroke="rgba(215,190,138,0.25)" stroke-linecap="round" stroke-linejoin="round" stroke-width="3"/>
        </g>
      </g>
      <g id="Group_339" data-name="Group 339" transform="translate(91.878 21.566)">
        <g id="Group_337" data-name="Group 337" transform="translate(0.005)">
          <path id="Path_1077" data-name="Path 1077" d="M-472.05,211.225c-9.788-4.69-19.171-15.155-21.281-25.285s-5.218-24.905-19.144-24.437c0,0,11.874,7.74,11.464,20.879-.285,9.146-4.282,20.4,2.989,28.139s14.042,14.972,14.042,23.454A23.843,23.843,0,0,1-486.9,246.03l.052-.023a68.419,68.419,0,0,1,32.994-14.053S-459.654,217.165-472.05,211.225Z" transform="translate(512.475 -161.492)" fill="none" stroke="rgba(215,190,138,0.25)" stroke-linecap="round" stroke-linejoin="round" stroke-width="3"/>
          <path id="Path_1078" data-name="Path 1078" d="M-415.416,211.225c9.789-4.69,19.171-15.155,21.282-25.285s5.217-24.905,19.143-24.437c0,0-11.873,7.74-11.463,20.879.284,9.146,4.281,20.4-2.99,28.139s-14.042,14.972-14.042,23.454a23.837,23.837,0,0,0,2.925,12.055l-.053-.023a68.415,68.415,0,0,0-32.994-14.053S-427.811,217.165-415.416,211.225Z" transform="translate(511.224 -161.492)" fill="none" stroke="rgba(215,190,138,0.25)" stroke-linecap="round" stroke-linejoin="round" stroke-width="3"/>
        </g>
        <g id="Group_338" data-name="Group 338" transform="translate(0 192.217)">
          <path id="Path_1079" data-name="Path 1079" d="M-415.421,391.918c9.789,4.69,19.171,15.155,21.282,25.285s5.217,24.905,19.143,24.437c0,0-11.873-7.74-11.463-20.879.284-9.146,4.281-20.4-2.99-28.139s-14.042-14.972-14.042-23.454a23.836,23.836,0,0,1,2.925-12.055l-.053.023a68.415,68.415,0,0,1-32.994,14.053S-427.816,385.978-415.421,391.918Z" transform="translate(511.229 -357.113)" fill="none" stroke="rgba(215,190,138,0.25)" stroke-linecap="round" stroke-linejoin="round" stroke-width="3"/>
          <path id="Path_1080" data-name="Path 1080" d="M-472.055,391.918c-9.788,4.69-19.171,15.155-21.281,25.285s-5.218,24.905-19.144,24.437c0,0,11.874-7.74,11.464-20.879-.284-9.146-4.282-20.4,2.989-28.139s14.042-14.972,14.042-23.454a23.842,23.842,0,0,0-2.924-12.055l.052.023a68.419,68.419,0,0,0,32.994,14.053S-459.659,385.978-472.055,391.918Z" transform="translate(512.48 -357.113)" fill="none" stroke="rgba(215,190,138,0.25)" stroke-linecap="round" stroke-linejoin="round" stroke-width="3"/>
        </g>
      </g>
      <g id="Group_342" data-name="Group 342" transform="translate(46.903 46.904)">
        <g id="Group_340" data-name="Group 340" transform="translate(0 0.006)">
          <path id="Path_1081" data-name="Path 1081" d="M-486.541,245.6a707.292,707.292,0,0,0-59.436-49.22l-12.356-9.138L-549.2,199.6a707.475,707.475,0,0,0,49.219,59.436,69.33,69.33,0,0,1,6.244-7.19A69.2,69.2,0,0,1-486.541,245.6Z" transform="translate(558.333 -187.244)" fill="none" stroke="rgba(215,190,138,0.25)" stroke-linecap="round" stroke-linejoin="round" stroke-width="3"/>
          <path id="Path_1082" data-name="Path 1082" d="M-401.136,357.86a707.484,707.484,0,0,0,59.436,49.22l12.355,9.137-9.137-12.356a707.294,707.294,0,0,0-49.22-59.435,69.318,69.318,0,0,1-6.244,7.189A69.3,69.3,0,0,1-401.136,357.86Z" transform="translate(555.539 -190.038)" fill="none" stroke="rgba(215,190,138,0.25)" stroke-linecap="round" stroke-linejoin="round" stroke-width="3"/>
        </g>
        <g id="Group_341" data-name="Group 341" transform="translate(0.007)">
          <path id="Path_1083" data-name="Path 1083" d="M-387.71,259.029a707.493,707.493,0,0,0,49.22-59.436l9.137-12.355-12.356,9.137a707.288,707.288,0,0,0-59.435,49.22,69.284,69.284,0,0,1,7.189,6.243A69.195,69.195,0,0,1-387.71,259.029Z" transform="translate(555.532 -187.238)" fill="none" stroke="rgba(215,190,138,0.25)" stroke-linecap="round" stroke-linejoin="round" stroke-width="3"/>
          <path id="Path_1084" data-name="Path 1084" d="M-499.969,344.434a707.478,707.478,0,0,0-49.219,59.436l-9.138,12.355,12.356-9.137a707.3,707.3,0,0,0,59.436-49.22,69.331,69.331,0,0,1-7.19-6.244A69.325,69.325,0,0,1-499.969,344.434Z" transform="translate(558.326 -190.032)" fill="none" stroke="rgba(215,190,138,0.25)" stroke-linecap="round" stroke-linejoin="round" stroke-width="3"/>
        </g>
      </g>
      <g id="Group_345" data-name="Group 345" transform="translate(21.619 91.825)">
        <g id="Group_343" data-name="Group 343" transform="translate(192.217 0.005)">
          <path id="Path_1085" data-name="Path 1085" d="M-353.6,273.466c4.691-9.789,15.156-19.171,25.285-21.282s24.906-5.217,24.437-19.143c0,0-7.74,11.874-20.879,11.464-9.146-.285-20.4-4.282-28.139,2.989s-14.972,14.042-23.454,14.042a23.837,23.837,0,0,1-12.055-2.925l.023.053a68.406,68.406,0,0,1,14.053,32.994S-359.537,285.862-353.6,273.466Z" transform="translate(388.403 -233.041)" fill="none" stroke="rgba(215,190,138,0.25)" stroke-linecap="round" stroke-linejoin="round" stroke-width="3"/>
          <path id="Path_1086" data-name="Path 1086" d="M-353.6,330.1c4.691,9.789,15.156,19.171,25.285,21.282s24.906,5.217,24.437,19.143c0,0-7.74-11.874-20.879-11.464-9.146.285-20.4,4.282-28.139-2.989s-14.972-14.042-23.454-14.042a23.837,23.837,0,0,0-12.055,2.925l.023-.053a68.405,68.405,0,0,0,14.053-32.994S-359.537,317.7-353.6,330.1Z" transform="translate(388.403 -234.292)" fill="none" stroke="rgba(215,190,138,0.25)" stroke-linecap="round" stroke-linejoin="round" stroke-width="3"/>
        </g>
        <g id="Group_344" data-name="Group 344">
          <path id="Path_1087" data-name="Path 1087" d="M-534.291,330.095c-4.69,9.789-15.155,19.171-25.285,21.282s-24.906,5.217-24.437,19.143c0,0,7.74-11.874,20.879-11.464,9.146.285,20.4,4.282,28.139-2.989s14.972-14.042,23.454-14.042a23.832,23.832,0,0,1,12.055,2.925l-.023-.053A68.413,68.413,0,0,1-513.561,311.9S-528.351,317.7-534.291,330.095Z" transform="translate(584.024 -234.287)" fill="none" stroke="rgba(215,190,138,0.25)" stroke-linecap="round" stroke-linejoin="round" stroke-width="3"/>
          <path id="Path_1088" data-name="Path 1088" d="M-534.291,273.461c-4.69-9.789-15.155-19.171-25.285-21.282s-24.906-5.217-24.437-19.143c0,0,7.74,11.874,20.879,11.464,9.146-.285,20.4-4.282,28.139,2.989s14.972,14.042,23.454,14.042a23.832,23.832,0,0,0,12.055-2.925l-.023.053a68.413,68.413,0,0,0-14.052,32.994S-528.351,285.857-534.291,273.461Z" transform="translate(584.024 -233.036)" fill="none" stroke="rgba(215,190,138,0.25)" stroke-linecap="round" stroke-linejoin="round" stroke-width="3"/>
        </g>
      </g>
    </g>
  </g>
</svg>
